<mxfile host="app.diagrams.net" agent="Mozilla/5.0 (X11; Linux x86_64) AppleWebKit/537.36 (KHTML, like Gecko) Chrome/126.0.0.0 Safari/537.36" version="24.7.17">
  <diagram name="PÃ¡gina-1" id="oGW1KTrl0tD07kFbmyK0">
    <mxGraphModel dx="794" dy="1893" grid="1" gridSize="10" guides="1" tooltips="1" connect="1" arrows="1" fold="1" page="1" pageScale="1" pageWidth="827" pageHeight="1169" math="0" shadow="0">
      <root>
        <mxCell id="0" />
        <mxCell id="1" parent="0" />
        <mxCell id="7JmF3Kj1mhmW2vbXEQDS-1" value="Provedores" style="whiteSpace=wrap;html=1;" vertex="1" parent="1">
          <mxGeometry x="90" y="120" width="110" height="50" as="geometry" />
        </mxCell>
        <mxCell id="7JmF3Kj1mhmW2vbXEQDS-2" value="" style="whiteSpace=wrap;html=1;" vertex="1" parent="1">
          <mxGeometry x="20" y="510" width="90" height="30" as="geometry" />
        </mxCell>
        <mxCell id="7JmF3Kj1mhmW2vbXEQDS-3" value="Clientes" style="whiteSpace=wrap;html=1;" vertex="1" parent="1">
          <mxGeometry x="490" y="120" width="120" height="40" as="geometry" />
        </mxCell>
        <mxCell id="7JmF3Kj1mhmW2vbXEQDS-4" value="Poductos" style="whiteSpace=wrap;html=1;" vertex="1" parent="1">
          <mxGeometry x="90" y="-100" width="110" height="60" as="geometry" />
        </mxCell>
        <mxCell id="7JmF3Kj1mhmW2vbXEQDS-5" value="Categoria" style="whiteSpace=wrap;html=1;" vertex="1" parent="1">
          <mxGeometry x="505" y="-100" width="140" height="60" as="geometry" />
        </mxCell>
        <mxCell id="7JmF3Kj1mhmW2vbXEQDS-7" value="Cod&amp;nbsp;" style="text;html=1;align=center;verticalAlign=middle;resizable=0;points=[];autosize=1;strokeColor=none;fillColor=none;" vertex="1" parent="1">
          <mxGeometry x="40" y="170" width="50" height="30" as="geometry" />
        </mxCell>
        <mxCell id="7JmF3Kj1mhmW2vbXEQDS-8" value="" style="ellipse;whiteSpace=wrap;html=1;aspect=fixed;fillColor=#000000;" vertex="1" parent="1">
          <mxGeometry x="55" y="140" width="20" height="20" as="geometry" />
        </mxCell>
        <mxCell id="7JmF3Kj1mhmW2vbXEQDS-11" value="nom" style="text;html=1;align=center;verticalAlign=middle;resizable=0;points=[];autosize=1;strokeColor=none;fillColor=none;" vertex="1" parent="1">
          <mxGeometry x="90" y="165" width="50" height="30" as="geometry" />
        </mxCell>
        <mxCell id="7JmF3Kj1mhmW2vbXEQDS-17" value="direc" style="text;html=1;align=center;verticalAlign=middle;resizable=0;points=[];autosize=1;strokeColor=none;fillColor=none;" vertex="1" parent="1">
          <mxGeometry x="140" y="165" width="50" height="30" as="geometry" />
        </mxCell>
        <mxCell id="7JmF3Kj1mhmW2vbXEQDS-19" value="telef" style="text;html=1;align=center;verticalAlign=middle;resizable=0;points=[];autosize=1;strokeColor=none;fillColor=none;" vertex="1" parent="1">
          <mxGeometry x="180" y="165" width="50" height="30" as="geometry" />
        </mxCell>
        <mxCell id="7JmF3Kj1mhmW2vbXEQDS-21" value="Cod&amp;nbsp;" style="text;html=1;align=center;verticalAlign=middle;resizable=0;points=[];autosize=1;strokeColor=none;fillColor=none;" vertex="1" parent="1">
          <mxGeometry x="490" y="190" width="50" height="30" as="geometry" />
        </mxCell>
        <mxCell id="7JmF3Kj1mhmW2vbXEQDS-22" value="" style="ellipse;whiteSpace=wrap;html=1;aspect=fixed;fillColor=#000000;" vertex="1" parent="1">
          <mxGeometry x="500" y="175" width="20" height="20" as="geometry" />
        </mxCell>
        <mxCell id="7JmF3Kj1mhmW2vbXEQDS-25" value="nom" style="text;html=1;align=center;verticalAlign=middle;resizable=0;points=[];autosize=1;strokeColor=none;fillColor=none;" vertex="1" parent="1">
          <mxGeometry x="540" y="160" width="50" height="30" as="geometry" />
        </mxCell>
        <mxCell id="7JmF3Kj1mhmW2vbXEQDS-26" value="direc" style="text;html=1;align=center;verticalAlign=middle;resizable=0;points=[];autosize=1;strokeColor=none;fillColor=none;" vertex="1" parent="1">
          <mxGeometry x="610" y="165" width="50" height="30" as="geometry" />
        </mxCell>
        <mxCell id="7JmF3Kj1mhmW2vbXEQDS-28" value="" style="endArrow=none;html=1;rounded=0;exitX=1.04;exitY=0.767;exitDx=0;exitDy=0;exitPerimeter=0;" edge="1" parent="1" source="7JmF3Kj1mhmW2vbXEQDS-26">
          <mxGeometry width="50" height="50" relative="1" as="geometry">
            <mxPoint x="680" y="210" as="sourcePoint" />
            <mxPoint x="720" y="210" as="targetPoint" />
          </mxGeometry>
        </mxCell>
        <mxCell id="7JmF3Kj1mhmW2vbXEQDS-29" value="" style="endArrow=none;html=1;rounded=0;exitX=0.66;exitY=1.067;exitDx=0;exitDy=0;exitPerimeter=0;" edge="1" parent="1" source="7JmF3Kj1mhmW2vbXEQDS-26">
          <mxGeometry width="50" height="50" relative="1" as="geometry">
            <mxPoint x="610" y="250" as="sourcePoint" />
            <mxPoint x="670" y="240" as="targetPoint" />
          </mxGeometry>
        </mxCell>
        <mxCell id="7JmF3Kj1mhmW2vbXEQDS-30" value="Calle" style="text;html=1;align=center;verticalAlign=middle;resizable=0;points=[];autosize=1;strokeColor=none;fillColor=none;" vertex="1" parent="1">
          <mxGeometry x="645" y="238" width="50" height="30" as="geometry" />
        </mxCell>
        <mxCell id="7JmF3Kj1mhmW2vbXEQDS-32" value="Ciudad" style="text;html=1;align=center;verticalAlign=middle;resizable=0;points=[];autosize=1;strokeColor=none;fillColor=none;" vertex="1" parent="1">
          <mxGeometry x="710" y="208" width="60" height="30" as="geometry" />
        </mxCell>
        <mxCell id="7JmF3Kj1mhmW2vbXEQDS-33" value="" style="endArrow=none;html=1;rounded=0;" edge="1" parent="1" target="7JmF3Kj1mhmW2vbXEQDS-26">
          <mxGeometry width="50" height="50" relative="1" as="geometry">
            <mxPoint x="620" y="270" as="sourcePoint" />
            <mxPoint x="610" y="230" as="targetPoint" />
          </mxGeometry>
        </mxCell>
        <mxCell id="7JmF3Kj1mhmW2vbXEQDS-34" value="Num" style="text;html=1;align=center;verticalAlign=middle;resizable=0;points=[];autosize=1;strokeColor=none;fillColor=none;" vertex="1" parent="1">
          <mxGeometry x="595" y="258" width="50" height="30" as="geometry" />
        </mxCell>
        <mxCell id="7JmF3Kj1mhmW2vbXEQDS-35" value="Compra" style="rhombus;whiteSpace=wrap;html=1;" vertex="1" parent="1">
          <mxGeometry x="115" y="10" width="65" height="60" as="geometry" />
        </mxCell>
        <mxCell id="7JmF3Kj1mhmW2vbXEQDS-37" style="edgeStyle=orthogonalEdgeStyle;rounded=0;orthogonalLoop=1;jettySize=auto;html=1;exitX=0.5;exitY=0;exitDx=0;exitDy=0;entryX=0;entryY=0;entryDx=0;entryDy=0;" edge="1" parent="1" source="7JmF3Kj1mhmW2vbXEQDS-8" target="7JmF3Kj1mhmW2vbXEQDS-8">
          <mxGeometry relative="1" as="geometry" />
        </mxCell>
        <mxCell id="7JmF3Kj1mhmW2vbXEQDS-38" value="" style="ellipse;whiteSpace=wrap;html=1;aspect=fixed;fillColor=#000000;" vertex="1" parent="1">
          <mxGeometry x="60" y="-85" width="20" height="20" as="geometry" />
        </mxCell>
        <mxCell id="7JmF3Kj1mhmW2vbXEQDS-39" value="id" style="text;html=1;align=center;verticalAlign=middle;resizable=0;points=[];autosize=1;strokeColor=none;fillColor=none;" vertex="1" parent="1">
          <mxGeometry x="20" y="-110" width="30" height="30" as="geometry" />
        </mxCell>
        <mxCell id="7JmF3Kj1mhmW2vbXEQDS-40" value="nombre" style="text;html=1;align=center;verticalAlign=middle;resizable=0;points=[];autosize=1;strokeColor=none;fillColor=none;" vertex="1" parent="1">
          <mxGeometry x="50" y="-140" width="60" height="30" as="geometry" />
        </mxCell>
        <mxCell id="7JmF3Kj1mhmW2vbXEQDS-41" value="precio" style="text;html=1;align=center;verticalAlign=middle;resizable=0;points=[];autosize=1;strokeColor=none;fillColor=none;" vertex="1" parent="1">
          <mxGeometry x="115" y="-160" width="60" height="30" as="geometry" />
        </mxCell>
        <mxCell id="7JmF3Kj1mhmW2vbXEQDS-42" value="nom provedor" style="text;html=1;align=center;verticalAlign=middle;resizable=0;points=[];autosize=1;strokeColor=none;fillColor=none;" vertex="1" parent="1">
          <mxGeometry x="175" y="-150" width="100" height="30" as="geometry" />
        </mxCell>
        <mxCell id="7JmF3Kj1mhmW2vbXEQDS-43" value="Pertence" style="rhombus;whiteSpace=wrap;html=1;" vertex="1" parent="1">
          <mxGeometry x="340" y="-100" width="65" height="60" as="geometry" />
        </mxCell>
        <mxCell id="7JmF3Kj1mhmW2vbXEQDS-44" value="" style="endArrow=none;html=1;rounded=0;entryX=0;entryY=0.5;entryDx=0;entryDy=0;exitX=1;exitY=0.5;exitDx=0;exitDy=0;" edge="1" parent="1" source="7JmF3Kj1mhmW2vbXEQDS-43" target="7JmF3Kj1mhmW2vbXEQDS-5">
          <mxGeometry width="50" height="50" relative="1" as="geometry">
            <mxPoint x="440" y="-10" as="sourcePoint" />
            <mxPoint x="490" y="-60" as="targetPoint" />
          </mxGeometry>
        </mxCell>
        <mxCell id="7JmF3Kj1mhmW2vbXEQDS-45" value="" style="endArrow=classic;html=1;rounded=0;exitX=0;exitY=0.5;exitDx=0;exitDy=0;entryX=1;entryY=0.5;entryDx=0;entryDy=0;" edge="1" parent="1" source="7JmF3Kj1mhmW2vbXEQDS-43" target="7JmF3Kj1mhmW2vbXEQDS-4">
          <mxGeometry width="50" height="50" relative="1" as="geometry">
            <mxPoint x="210" y="-40" as="sourcePoint" />
            <mxPoint x="260" y="-90" as="targetPoint" />
          </mxGeometry>
        </mxCell>
        <mxCell id="7JmF3Kj1mhmW2vbXEQDS-46" value="" style="ellipse;whiteSpace=wrap;html=1;aspect=fixed;fillColor=#000000;" vertex="1" parent="1">
          <mxGeometry x="500" y="-135" width="20" height="20" as="geometry" />
        </mxCell>
        <mxCell id="7JmF3Kj1mhmW2vbXEQDS-47" value="id" style="text;html=1;align=center;verticalAlign=middle;resizable=0;points=[];autosize=1;strokeColor=none;fillColor=none;" vertex="1" parent="1">
          <mxGeometry x="490" y="-170" width="30" height="30" as="geometry" />
        </mxCell>
        <mxCell id="7JmF3Kj1mhmW2vbXEQDS-48" value="nombre" style="text;html=1;align=center;verticalAlign=middle;resizable=0;points=[];autosize=1;strokeColor=none;fillColor=none;" vertex="1" parent="1">
          <mxGeometry x="535" y="-130" width="60" height="30" as="geometry" />
        </mxCell>
        <mxCell id="7JmF3Kj1mhmW2vbXEQDS-50" value="descripcion" style="text;html=1;align=center;verticalAlign=middle;resizable=0;points=[];autosize=1;strokeColor=none;fillColor=none;" vertex="1" parent="1">
          <mxGeometry x="590" y="-130" width="80" height="30" as="geometry" />
        </mxCell>
        <mxCell id="7JmF3Kj1mhmW2vbXEQDS-52" value="Pedidos" style="rounded=0;whiteSpace=wrap;html=1;" vertex="1" parent="1">
          <mxGeometry x="740" y="15" width="120" height="50" as="geometry" />
        </mxCell>
        <mxCell id="7JmF3Kj1mhmW2vbXEQDS-53" value="" style="ellipse;whiteSpace=wrap;html=1;aspect=fixed;fillColor=#000000;" vertex="1" parent="1">
          <mxGeometry x="740" y="-10" width="20" height="20" as="geometry" />
        </mxCell>
        <mxCell id="7JmF3Kj1mhmW2vbXEQDS-54" value="id" style="text;html=1;align=center;verticalAlign=middle;resizable=0;points=[];autosize=1;strokeColor=none;fillColor=none;" vertex="1" parent="1">
          <mxGeometry x="740" y="-40" width="30" height="30" as="geometry" />
        </mxCell>
        <mxCell id="7JmF3Kj1mhmW2vbXEQDS-55" value="fecha" style="text;html=1;align=center;verticalAlign=middle;resizable=0;points=[];autosize=1;strokeColor=none;fillColor=none;" vertex="1" parent="1">
          <mxGeometry x="765" y="-22" width="50" height="30" as="geometry" />
        </mxCell>
        <mxCell id="7JmF3Kj1mhmW2vbXEQDS-56" value="Cliente" style="text;html=1;align=center;verticalAlign=middle;resizable=0;points=[];autosize=1;strokeColor=none;fillColor=none;" vertex="1" parent="1">
          <mxGeometry x="810" y="-22" width="60" height="30" as="geometry" />
        </mxCell>
        <mxCell id="7JmF3Kj1mhmW2vbXEQDS-57" value="descuento" style="text;html=1;align=center;verticalAlign=middle;resizable=0;points=[];autosize=1;strokeColor=none;fillColor=none;" vertex="1" parent="1">
          <mxGeometry x="850" y="8" width="80" height="30" as="geometry" />
        </mxCell>
        <mxCell id="7JmF3Kj1mhmW2vbXEQDS-58" value="moto-finsl" style="text;html=1;align=center;verticalAlign=middle;resizable=0;points=[];autosize=1;strokeColor=none;fillColor=none;" vertex="1" parent="1">
          <mxGeometry x="860" y="38" width="80" height="30" as="geometry" />
        </mxCell>
        <mxCell id="7JmF3Kj1mhmW2vbXEQDS-59" value="realiza" style="rhombus;whiteSpace=wrap;html=1;" vertex="1" parent="1">
          <mxGeometry x="760" y="110" width="60" height="45" as="geometry" />
        </mxCell>
        <mxCell id="7JmF3Kj1mhmW2vbXEQDS-60" value="" style="endArrow=classic;html=1;rounded=0;exitX=0.5;exitY=0;exitDx=0;exitDy=0;entryX=0.5;entryY=1;entryDx=0;entryDy=0;" edge="1" parent="1" source="7JmF3Kj1mhmW2vbXEQDS-59" target="7JmF3Kj1mhmW2vbXEQDS-52">
          <mxGeometry width="50" height="50" relative="1" as="geometry">
            <mxPoint x="790" y="120" as="sourcePoint" />
            <mxPoint x="840" y="70" as="targetPoint" />
          </mxGeometry>
        </mxCell>
        <mxCell id="7JmF3Kj1mhmW2vbXEQDS-61" value="" style="endArrow=none;html=1;rounded=0;entryX=0;entryY=0.5;entryDx=0;entryDy=0;" edge="1" parent="1" target="7JmF3Kj1mhmW2vbXEQDS-59">
          <mxGeometry width="50" height="50" relative="1" as="geometry">
            <mxPoint x="610" y="140" as="sourcePoint" />
            <mxPoint x="660" y="90" as="targetPoint" />
          </mxGeometry>
        </mxCell>
        <mxCell id="7JmF3Kj1mhmW2vbXEQDS-62" value="venden" style="rhombus;whiteSpace=wrap;html=1;" vertex="1" parent="1">
          <mxGeometry x="349" y="15" width="65" height="60" as="geometry" />
        </mxCell>
        <mxCell id="7JmF3Kj1mhmW2vbXEQDS-65" value="1,n" style="text;html=1;align=center;verticalAlign=middle;resizable=0;points=[];autosize=1;strokeColor=none;fillColor=none;" vertex="1" parent="1">
          <mxGeometry x="800" y="68" width="40" height="30" as="geometry" />
        </mxCell>
        <mxCell id="7JmF3Kj1mhmW2vbXEQDS-66" value="" style="endArrow=none;html=1;rounded=0;exitX=0.5;exitY=0;exitDx=0;exitDy=0;entryX=0.5;entryY=1;entryDx=0;entryDy=0;" edge="1" parent="1" source="7JmF3Kj1mhmW2vbXEQDS-1" target="7JmF3Kj1mhmW2vbXEQDS-35">
          <mxGeometry width="50" height="50" relative="1" as="geometry">
            <mxPoint x="160" y="120" as="sourcePoint" />
            <mxPoint x="210" y="70" as="targetPoint" />
          </mxGeometry>
        </mxCell>
        <mxCell id="7JmF3Kj1mhmW2vbXEQDS-67" value="" style="endArrow=none;html=1;rounded=0;exitX=0.5;exitY=0;exitDx=0;exitDy=0;entryX=0.5;entryY=1;entryDx=0;entryDy=0;" edge="1" parent="1" source="7JmF3Kj1mhmW2vbXEQDS-35" target="7JmF3Kj1mhmW2vbXEQDS-4">
          <mxGeometry width="50" height="50" relative="1" as="geometry">
            <mxPoint x="180" y="10" as="sourcePoint" />
            <mxPoint x="230" y="-40" as="targetPoint" />
          </mxGeometry>
        </mxCell>
        <mxCell id="7JmF3Kj1mhmW2vbXEQDS-68" value="1,n" style="text;html=1;align=center;verticalAlign=middle;resizable=0;points=[];autosize=1;strokeColor=none;fillColor=none;" vertex="1" parent="1">
          <mxGeometry x="145" y="-40" width="40" height="30" as="geometry" />
        </mxCell>
        <mxCell id="7JmF3Kj1mhmW2vbXEQDS-69" value="1,n" style="text;html=1;align=center;verticalAlign=middle;resizable=0;points=[];autosize=1;strokeColor=none;fillColor=none;" vertex="1" parent="1">
          <mxGeometry x="145" y="98" width="40" height="30" as="geometry" />
        </mxCell>
        <mxCell id="7JmF3Kj1mhmW2vbXEQDS-76" value="" style="endArrow=none;html=1;rounded=0;entryX=0.383;entryY=-0.025;entryDx=0;entryDy=0;entryPerimeter=0;exitX=1;exitY=1;exitDx=0;exitDy=0;" edge="1" parent="1" source="7JmF3Kj1mhmW2vbXEQDS-62" target="7JmF3Kj1mhmW2vbXEQDS-3">
          <mxGeometry width="50" height="50" relative="1" as="geometry">
            <mxPoint x="430" y="70" as="sourcePoint" />
            <mxPoint x="480" y="20" as="targetPoint" />
          </mxGeometry>
        </mxCell>
        <mxCell id="7JmF3Kj1mhmW2vbXEQDS-77" value="" style="endArrow=none;html=1;rounded=0;exitX=0;exitY=0;exitDx=0;exitDy=0;entryX=1;entryY=1;entryDx=0;entryDy=0;" edge="1" parent="1" source="7JmF3Kj1mhmW2vbXEQDS-62" target="7JmF3Kj1mhmW2vbXEQDS-4">
          <mxGeometry width="50" height="50" relative="1" as="geometry">
            <mxPoint x="300" y="30" as="sourcePoint" />
            <mxPoint x="350" y="-20" as="targetPoint" />
          </mxGeometry>
        </mxCell>
        <mxCell id="7JmF3Kj1mhmW2vbXEQDS-78" value="1,n" style="text;html=1;align=center;verticalAlign=middle;resizable=0;points=[];autosize=1;strokeColor=none;fillColor=none;" vertex="1" parent="1">
          <mxGeometry x="480" y="78" width="40" height="30" as="geometry" />
        </mxCell>
        <mxCell id="7JmF3Kj1mhmW2vbXEQDS-79" value="1,n" style="text;html=1;align=center;verticalAlign=middle;resizable=0;points=[];autosize=1;strokeColor=none;fillColor=none;" vertex="1" parent="1">
          <mxGeometry x="210" y="-62" width="40" height="30" as="geometry" />
        </mxCell>
      </root>
    </mxGraphModel>
  </diagram>
</mxfile>
